<?xml version="1.0" standalone="no"?><!DOCTYPE svg PUBLIC "-//W3C//DTD SVG 1.1//EN" "http://www.w3.org/Graphics/SVG/1.1/DTD/svg11.dtd"><svg t="1545380022556" class="icon" style="" viewBox="0 0 1024 1024" version="1.1" xmlns="http://www.w3.org/2000/svg" p-id="8936" xmlns:xlink="http://www.w3.org/1999/xlink" width="128" height="128"><defs><style type="text/css"></style></defs><path d="M512 42.666667C251.733333 42.666667 42.666667 253.866667 42.666667 512c0 260.266667 209.066667 469.333333 469.333333 469.333333 260.266667 0 469.333333-209.066667 469.333333-469.333333C981.333333 253.866667 772.266667 42.666667 512 42.666667zM512 938.666667C277.333333 938.666667 85.333333 746.666667 85.333333 512 85.333333 277.333333 277.333333 85.333333 512 85.333333c234.666667 0 426.666667 192 426.666667 426.666667C938.666667 746.666667 746.666667 938.666667 512 938.666667zM721.066667 256l-55.466667 0L512 469.333333l-149.333333-215.466667-59.733333 0 179.2 247.466667L292.266667 768l55.466667 0L512 541.866667 672 768l59.733333 0-189.866667-262.4L721.066667 256z" p-id="8937" fill="#d81e06"></path></svg>