<?xml version="1.0" standalone="no"?><!DOCTYPE svg PUBLIC "-//W3C//DTD SVG 1.1//EN" "http://www.w3.org/Graphics/SVG/1.1/DTD/svg11.dtd"><svg t="1545620271020" class="icon" style="" viewBox="0 0 1024 1024" version="1.1" xmlns="http://www.w3.org/2000/svg" p-id="4014" xmlns:xlink="http://www.w3.org/1999/xlink" width="128" height="128"><defs><style type="text/css"></style></defs><path d="M121.018182 912.290909h786.618182V977.454545H121.018182zM176.872727 781.963636H186.181818l204.8-65.163636c4.654545 0 9.309091-4.654545 13.963637-9.309091l465.454545-465.454545c4.654545-4.654545 9.309091-13.963636 9.309091-23.272728s-4.654545-18.618182-9.309091-23.272727l-144.290909-144.290909c-13.963636-13.963636-32.581818-13.963636-46.545455 0l-465.454545 465.454545c-4.654545 4.654545-4.654545 9.309091-9.309091 13.963637L139.636364 735.418182c-4.654545 13.963636 0 23.272727 9.309091 32.581818 9.309091 9.309091 18.618182 13.963636 27.927272 13.963636z m93.090909-223.418181l432.872728-432.872728 97.745454 97.745455-432.872727 432.872727-139.636364 41.890909 41.890909-139.636363z" p-id="4015" fill="#515151"></path></svg>