<?xml version="1.0" standalone="no"?><!DOCTYPE svg PUBLIC "-//W3C//DTD SVG 1.1//EN" "http://www.w3.org/Graphics/SVG/1.1/DTD/svg11.dtd"><svg t="1555463960112" class="icon" style="" viewBox="0 0 1024 1024" version="1.1" xmlns="http://www.w3.org/2000/svg" p-id="3756" xmlns:xlink="http://www.w3.org/1999/xlink" width="128" height="128"><defs><style type="text/css"></style></defs><path d="M231.405382 141.889164h-26.568146c-11.561891 0-20.945455 9.364945-20.945454 20.945454v642.271418c0 11.561891 9.383564 20.945455 20.945454 20.945455h26.568146c11.561891 0 20.945455-9.383564 20.945454-20.945455V162.834618c0-11.561891-9.383564-20.945455-20.945454-20.945454z m274.487854 109.177018c-18.971927 0-34.350545 21.131636-34.350545 47.178473v480.833163c0 26.046836 15.378618 47.178473 34.350545 47.178473 18.990545 0 34.369164-21.131636 34.369164-47.178473V298.244655c0-26.046836-15.397236-47.178473-34.369164-47.178473z m313.269528-82.850909h-26.568146c-11.561891 0-20.945455 9.364945-20.945454 20.945454v615.945309c0 11.561891 9.383564 20.945455 20.945454 20.945455h26.568146c11.561891 0 20.945455-9.383564 20.945454-20.945455V189.160727c0-11.561891-9.383564-20.945455-20.945454-20.945454z" p-id="3757" fill="#ffffff"></path></svg>