<?xml version="1.0" standalone="no"?><!DOCTYPE svg PUBLIC "-//W3C//DTD SVG 1.1//EN" "http://www.w3.org/Graphics/SVG/1.1/DTD/svg11.dtd"><svg t="1553757403552" class="icon" style="" viewBox="0 0 1024 1024" version="1.1" xmlns="http://www.w3.org/2000/svg" p-id="11850" xmlns:xlink="http://www.w3.org/1999/xlink" width="128" height="128"><defs><style type="text/css"></style></defs><path d="M547.36 954.73a255.87 255.87 0 0 1-48.88-34.91A312.67 312.67 0 0 1 474.73 896H128.11l-0.11-0.11V128.11l0.11-0.11h511.78l0.11 0.11v240.52c6.33-4.66 9.87-7.77 10.34-8.19l21.87-20.57 21.47 20.58c0.52 0.47 4.05 3.56 10.32 8.17V128a64.19 64.19 0 0 0-64-64H128a64.19 64.19 0 0 0-64 64v768a64.19 64.19 0 0 0 64 64h429.51q-5.01-2.51-10.15-5.27z" p-id="11851" fill="#ffffff"></path><path d="M929 468c-27.86 0-73.16-3.36-130.31-19.46A370.36 370.36 0 0 1 704 407.21C683 394.16 672 384 672 384s-11 10.16-32 23.21a370.37 370.37 0 0 1-94.72 41.34C488.13 464.65 442.83 468 415 468c-20 0-31-1.72-31-1.72s0.77 74.8 23 206.88C425.21 780.9 472.74 853.74 519.85 896a224.59 224.59 0 0 0 42.71 30.57c39.29 21.22 72.49 29 91.69 31.8A132.22 132.22 0 0 0 672 960c1.43 0 48-0.26 109.41-33.43C839 895.47 913.17 814.23 937 673.16c22.27-132.08 23-206.88 23-206.88S949 468 929 468z m-55.15 194.52q-0.81 4.78-1.71 9.48H672v224c-2.85-0.17-14.61-1.17-32-6.22a240.9 240.9 0 0 1-47-19.49c-13.78-7.44-40.94-25.82-68.08-65.36-25.47-37.12-43.29-81.79-53-132.89H672V462.71c9.26 5.68 19.94 11.71 32 17.7a444.17 444.17 0 0 0 77.37 29.74 583.21 583.21 0 0 0 110.25 20.27c-3.15 32.81-8.54 77.37-17.77 132.1z" p-id="11852" fill="#ffffff"></path></svg>