<?xml version="1.0" standalone="no"?>
<!DOCTYPE svg PUBLIC "-//W3C//DTD SVG 1.1//EN" "http://www.w3.org/Graphics/SVG/1.1/DTD/svg11.dtd">
<svg t="1551860972410" class="icon" style="" viewBox="0 0 1024 1024" version="1.1" xmlns="http://www.w3.org/2000/svg" p-id="3052" xmlns:xlink="http://www.w3.org/1999/xlink" width="128" height="128">
  <defs><style type="text/css"></style></defs>
  <path d="M264.039093 676.720575c68.369134 40.488133 153.807015 71.28351 247.238964 71.28351l0 0 0 0c109.941971 0 209.067596-42.206264 280.83513-93.527117 71.208808-50.760081 115.65509-108.936061 115.65509-142.001131l0 0 0 0c0-33.084513-44.447305-91.25026-115.65509-142.002155-71.768557-51.330062-170.894182-93.52814-280.83513-93.52814l0 0c-93.431949 0-178.86983 30.797423-247.238964 71.285556C173.464215 402.980028 115.347586 474.264561 115.347586 512.475837l0 0C115.347586 550.676881 173.464215 621.961414 264.039093 676.720575L264.039093 676.720575zM233.280556 310.589804c76.344782-48.471968 173.174108-85.544305 277.997502-85.544305l0 0c105.384166 0 201.655789 37.072337 277.998525 85.544305 103.684454 66.150606 169.756265 153.97279 169.756265 201.886033 0 47.8938-66.070788 135.726218-169.756265 201.874777-76.342736 48.483224-172.614359 85.535095-277.998525 85.535095l0 0c-104.823394 0-201.652719-37.051871-277.997502-85.535095-103.105263-66.149583-169.756265-153.982-169.756265-201.874777C63.524291 464.562595 130.175293 376.739387 233.280556 310.589804L233.280556 310.589804zM401.897881 622.541629c27.918863 27.938306 66.651003 45.046962 109.380176 45.046962l0 0 0 0c42.729174 0 81.461313-17.108656 109.941971-45.046962 27.91784-28.51852 45.00603-67.306942 45.00603-110.065791l0 0c0-42.778292-17.08819-81.557504-45.00603-109.49581-28.479635-28.519544-67.212798-45.62513-109.941971-45.62513s-81.46029 17.10661-109.380176 45.62513c-28.479635 27.938306-45.566802 66.717518-45.566802 109.49581C356.33108 555.233664 373.41927 594.022085 401.897881 622.541629L401.897881 622.541629zM365.443621 365.907691c37.014009-37.072337 88.87619-60.45386 145.834436-60.45386l0 0c56.95927 0 108.800985 23.382547 146.394185 61.023842 37.033451 37.071314 60.395532 88.962148 60.395532 145.998165 0 57.026808-23.361057 108.925828-60.395532 146.557914-37.592177 37.071314-89.433892 60.45386-146.394185 60.45386-56.958246 0-108.819404-23.38357-145.834436-60.45386-37.592177-37.631062-60.95528-89.531106-60.95528-146.557914C304.488341 455.43982 327.851445 403.548986 365.443621 365.907691L365.443621 365.907691zM464.552873 465.711767c11.970636-11.980869 28.499078-19.394722 46.725184-19.394722l0 0c18.22713 0 34.754548 7.413853 46.706765 19.394722l0 0c11.971659 11.970636 19.36607 28.508287 19.36607 46.76407 0 18.23634-7.394411 34.783201-19.36607 46.753837-11.952216 11.970636-28.479635 19.384489-46.706765 19.384489l0 0c-18.22713 0-34.754548-7.413853-46.725184-19.384489l0 0c-11.951193-11.970636-19.346627-28.517497-19.346627-46.753837C445.206246 494.220055 452.60168 477.68138 464.552873 465.711767L464.552873 465.711767z" p-id="3053" fill="#bfbfbf">
  </path>
</svg>
