<?xml version="1.0" standalone="no"?><!DOCTYPE svg PUBLIC "-//W3C//DTD SVG 1.1//EN" "http://www.w3.org/Graphics/SVG/1.1/DTD/svg11.dtd"><svg t="1545649175193" class="icon" style="" viewBox="0 0 1024 1024" version="1.1" xmlns="http://www.w3.org/2000/svg" p-id="4509" xmlns:xlink="http://www.w3.org/1999/xlink" width="128" height="128"><defs><style type="text/css"></style></defs><path d="M512.727 163.857L127.312 694.481C74.097 767.745 90.35 870.275 163.614 923.49c73.264 53.215 175.795 36.962 229.009-36.302l385.415-530.623c31.929-43.958 22.177-105.477-21.781-137.406-43.958-31.929-105.477-22.177-137.406 21.781L233.437 771.564c-10.643 14.653-7.392 35.159 7.26 45.802 14.653 10.643 35.159 7.392 45.802-7.26l385.415-530.623c10.643-14.653 31.149-17.903 45.802-7.26 14.653 10.643 17.903 31.149 7.26 45.802L339.561 848.647c-31.929 43.958-93.447 53.71-137.406 21.781-43.958-31.929-53.71-93.447-21.781-137.406l385.415-530.623c53.215-73.264 155.746-89.517 229.009-36.302 73.264 53.215 89.517 155.746 36.302 229.009L484.227 872.667c-10.643 14.653-7.392 35.159 7.26 45.802 14.653 10.643 35.159 7.392 45.802-7.26l346.874-477.561c74.5-102.569 51.746-246.113-50.823-320.613-102.569-74.501-246.112-51.747-320.613 50.822z" p-id="4510" fill="#ffffff"></path></svg>
