<?xml version="1.0" standalone="no"?><!DOCTYPE svg PUBLIC "-//W3C//DTD SVG 1.1//EN"><svg class="icon" style="" viewBox="0 0 1024 1024" version="1.1" xmlns="http://www.w3.org/2000/svg" width="128" height="128"><defs><style type="text/css"></style></defs><path d="M362.667 533.333h-128c-70.4 0-128 57.6-128 128v128c0 70.4 57.6 128 128 128h128c70.4 0 128-57.6 128-128v-128c0-70.4-57.6-128-128-128z m64 256c0 35.2-28.8 64-64 64h-128c-35.2 0-64-28.8-64-64v-128c0-35.2 28.8-64 64-64h128c35.2 0 64 28.8 64 64v128z m384-704h-128c-70.4 0-128 57.6-128 128v128c0 70.4 57.6 128 128 128h128c70.4 0 128-57.6 128-128v-128c0-70.4-57.6-128-128-128z m64 256c0 35.2-28.8 64-64 64h-128c-35.2 0-64-28.8-64-64v-128c0-35.2 28.8-64 64-64h128c35.2 0 64 28.8 64 64v128z m-64 192h-128c-70.4 0-128 57.6-128 128v128c0 70.4 57.6 128 128 128h128c70.4 0 128-57.6 128-128v-128c0-70.4-57.6-128-128-128z m64 256c0 35.2-28.8 64-64 64h-128c-35.2 0-64-28.8-64-64v-128c0-35.2 28.8-64 64-64h128c35.2 0 64 28.8 64 64v128z m-512-704h-128c-70.4 0-128 57.6-128 128v128c0 70.4 57.6 128 128 128h128c70.4 0 128-57.6 128-128v-128c0-70.4-57.6-128-128-128z m64 256c0 35.2-28.8 64-64 64h-128c-35.2 0-64-28.8-64-64v-128c0-35.2 28.8-64 64-64h128c35.2 0 64 28.8 64 64v128z" fill="#bfbfbf"></path></svg>
