<?xml version="1.0" standalone="no"?><!DOCTYPE svg PUBLIC "-//W3C//DTD SVG 1.1//EN" "http://www.w3.org/Graphics/SVG/1.1/DTD/svg11.dtd"><svg t="1545364517784" class="icon" style="" viewBox="0 0 1024 1024" version="1.1" xmlns="http://www.w3.org/2000/svg" p-id="5997" xmlns:xlink="http://www.w3.org/1999/xlink" width="128" height="128"><defs><style type="text/css"></style></defs><path d="M512 67C266.2 67 67 266.2 67 512s199.2 445 445 445 445-199.2 445-445S757.8 67 512 67zM314.4 169.9c-0.4 0.3-0.9 0.5-1.3 0.8 0.4-0.3 0.9-0.5 1.3-0.8z m-5.9 3.5c-0.3 0.2-0.6 0.3-0.8 0.5 0.3-0.2 0.5-0.4 0.8-0.5z m-6.2 3.8z m-69.6 55.5c20.8-20.8 43.6-39.1 68.2-54.6-12.5 29.2-23.4 59.3-32.6 90.1-30.8 9.2-60.9 20.1-90.2 32.7 15.5-24.6 33.8-47.4 54.6-68.2z m-54.6 68.2c-3.9 6.2-7.7 12.6-11.3 19 3.6-6.4 7.3-12.8 11.3-19z m-30.4 58.2c16.1-8.1 32.5-15.7 49.1-22.7 19.4-8.2 39.2-15.6 59.2-22.3-13.7 57.2-21.6 116.8-23 177.9H117.5c2.3-46 12.4-90.6 30.2-132.9zM233 532c1.4 61.1 9.3 120.7 22.9 177.9-20-6.7-39.8-14.1-59.2-22.3-16.6-7-32.9-14.6-49.1-22.7-17.8-42.3-27.9-86.9-30.2-132.9H233z m-66.2 172.1c3.6 6.4 7.4 12.8 11.3 19-4-6.2-7.7-12.6-11.3-19z m65.9 87.2c-20.8-20.8-39.1-43.6-54.6-68.2 29.2 12.5 59.3 23.4 90.2 32.7 9.2 30.8 20.1 60.9 32.7 90.2-24.7-15.6-47.5-33.9-68.3-54.7z m68.2 54.6c6.2 3.9 12.6 7.7 19 11.3-6.4-3.6-12.8-7.3-19-11.3zM492 906.5c-46-2.3-90.6-12.4-132.9-30.2-8.1-16.1-15.7-32.5-22.7-49.1-8.2-19.4-15.6-39.2-22.3-59.2 57.3 13.7 116.8 21.5 177.9 22.9v115.6z m0-155.5c-48.3-1.2-96.4-6.6-143.3-16.2-16.1-3.3-32.2-7.1-48.1-11.4-4.3-15.9-8.1-32-11.4-48.1-9.6-46.9-15-95-16.2-143.3h219v219z m0-259H273c1.2-48.3 6.6-96.4 16.2-143.3 3.3-16.1 7.1-32.2 11.4-48.1 15.9-4.3 32-8.1 48.1-11.4 46.9-9.6 95-15 143.3-16.2v219z m0-259c-61.1 1.4-120.7 9.3-177.9 22.9 6.7-20 14.1-39.8 22.3-59.2 7-16.6 14.6-32.9 22.7-49.1 42.3-17.8 86.9-27.9 132.9-30.2V233z m414.5 259H791c-1.4-61.1-9.3-120.7-22.9-177.9 20 6.7 39.8 14.1 59.2 22.3 16.6 7 32.9 14.6 49.1 22.7 17.7 42.3 27.8 86.9 30.1 132.9z m-52.4-177.6c-0.3-0.4-0.5-0.9-0.8-1.3 0.3 0.4 0.5 0.9 0.8 1.3z m-3.5-5.9c-0.2-0.3-0.3-0.6-0.5-0.8 0.2 0.3 0.4 0.5 0.5 0.8z m-3.8-6.2z m-0.9-1.4c-29.2-12.5-59.3-23.4-90.1-32.6-9.2-30.8-20.1-60.9-32.6-90.1 24.5 15.5 47.3 33.8 68.2 54.6 20.7 20.7 39 43.5 54.5 68.1zM721.7 177.2z m-5.4-3.3c-0.3-0.2-0.6-0.3-0.8-0.5 0.3 0.1 0.5 0.3 0.8 0.5z m-5.4-3.2c-0.4-0.3-0.9-0.5-1.3-0.8 0.4 0.3 0.9 0.5 1.3 0.8zM532 117.5c46 2.3 90.6 12.4 132.9 30.2 8.1 16.1 15.7 32.5 22.7 49.1 8.2 19.4 15.6 39.2 22.3 59.2-57.2-13.7-116.8-21.6-177.9-23V117.5z m0 155.5c48.3 1.2 96.4 6.6 143.3 16.2 16.1 3.3 32.2 7.1 48.1 11.4 4.3 15.9 8.1 32 11.4 48.1 9.6 46.9 15 95 16.2 143.3H532V273z m0 259h219c-1.2 48.3-6.6 96.4-16.2 143.3-3.3 16.1-7.1 32.2-11.4 48.1-15.9 4.3-32 8.1-48.1 11.4-46.9 9.6-95 15-143.3 16.2V532z m132.9 344.3c-42.3 17.8-86.9 27.9-132.9 30.2V791c61.1-1.4 120.7-9.3 177.9-22.9-6.7 20-14.1 39.8-22.3 59.2-7 16.6-14.6 32.9-22.7 49z m39.2-19.1c6.4-3.6 12.8-7.4 19-11.3-6.2 4-12.6 7.7-19 11.3z m87.2-65.9c-20.8 20.8-43.6 39.1-68.2 54.6 12.5-29.2 23.4-59.3 32.7-90.2 30.8-9.2 60.9-20.1 90.1-32.6-15.5 24.6-33.8 47.4-54.6 68.2z m55.5-69.6z m3.3-5.4c0.2-0.3 0.3-0.6 0.5-0.8-0.1 0.3-0.3 0.5-0.5 0.8z m3.2-5.4c0.3-0.4 0.5-0.9 0.8-1.3-0.3 0.4-0.5 0.9-0.8 1.3z m23-46c-16.1 8.1-32.5 15.7-49.1 22.7-19.4 8.2-39.2 15.6-59.2 22.3 13.7-57.3 21.5-116.8 22.9-177.9h115.5c-2.2 46-12.3 90.6-30.1 132.9z" fill="#ffffff" p-id="5998"></path></svg>
