<?xml version="1.0" standalone="no"?><!DOCTYPE svg PUBLIC "-//W3C//DTD SVG 1.1//EN" "http://www.w3.org/Graphics/SVG/1.1/DTD/svg11.dtd"><svg t="1551336380626" class="icon" style="" viewBox="0 0 1024 1024" version="1.1" xmlns="http://www.w3.org/2000/svg" p-id="2030" xmlns:xlink="http://www.w3.org/1999/xlink" width="128" height="128"><defs><style type="text/css"></style></defs><path d="M512 64a32 32 0 0 0-32 32v416a32 32 0 0 0 64 0V96a32 32 0 0 0-32-32z" p-id="2031" fill="#ff0000"></path><path d="M683.34 97.94a32 32 0 0 0-24.48 59.15C798.07 214.76 896 351.94 896 512c0 212.08-171.92 384-384 384S128 724.08 128 512c0-160.06 97.93-297.24 237.14-354.91a32 32 0 0 0-24.48-59.15C178.25 165.22 64 325.26 64 512c0 247.42 200.58 448 448 448s448-200.58 448-448c0-186.74-114.25-346.78-276.66-414.06z" p-id="2032" fill="#ff0000"></path></svg>