<?xml version="1.0" standalone="no"?><!DOCTYPE svg PUBLIC "-//W3C//DTD SVG 1.1//EN" "http://www.w3.org/Graphics/SVG/1.1/DTD/svg11.dtd"><svg t="1552631252740" class="icon" style="" viewBox="0 0 1024 1024" version="1.1" xmlns="http://www.w3.org/2000/svg" p-id="2752" xmlns:xlink="http://www.w3.org/1999/xlink" width="128" height="128"><defs><style type="text/css"></style></defs><path d="M936.212 271.405c-1.681 3.419-42.331 14.364-52.325 24.47 0.983 13.608-0.125 27.055-2.892 40.067 4.675 11.48 45.985 29.901 47.28 33.83 1.439 4.385-21.794 49.577-26.055 51.037-3.589 1.224-39.394-19.17-53.956-19.475-8.028 9.165-17.201 17.432-27.512 24.433-6.202 9.933 10.87 54.249 8.937 58.034-2.103 4.107-50.674 19.734-54.727 17.77-3.336-1.618-13.791-39.729-23.699-51.091-12.766 1.13-25.432 0.502-37.737-1.626 0.017 0.038 0.037 0.073 0.058 0.11-10.745-5.424-33.344 45.718-37.754 47.15-4.406 1.427-49.865-21.672-51.334-25.908-1.232-3.564 19.305-39.205 19.582-53.661-10.708-9.024-20.221-19.591-28.037-31.604-9.27-6.798-54.906 10.634-58.757 8.684-4.136-2.087-19.852-50.377-17.873-54.406 1.751-3.563 45.94-15.315 53.471-25.771-0.61-12.036 0.443-23.926 2.755-35.487-0.295 0.137-0.568 0.284-0.867 0.421 5.46-10.681-45.986-33.147-47.426-37.531-1.436-4.381 21.798-49.575 26.055-51.037 3.875-1.321 45.38 22.607 57.022 19.122 8.306-9.146 17.814-17.33 28.444-24.202 0.568-0.693 1.327-1.407 2.228-2.128 5.759-10.43-10.99-54-9.073-57.75 2.1-4.107 50.67-19.734 54.728-17.765 3.729 1.809 16.375 49.268 27.184 53.86 0.971 0.064 1.925 0.137 2.722 0.288 11.384-0.143 22.586 1.191 33.48 3.624 11.397-1.72 31.258-46.117 35.365-47.45 4.406-1.432 49.869 21.671 51.334 25.907 1.344 3.883-23.163 45.845-19.139 56.989 8.165 7.565 15.607 16.004 21.935 25.422 9.389 6.7 54.856-10.659 58.702-8.713 4.136 2.072 19.852 50.363 17.881 54.387z m-134.427 13.276c-11.518-35.095-49.438-54.269-84.703-42.837-35.27 11.432-54.524 49.154-43.012 84.251 11.518 35.091 49.438 54.273 84.703 42.837s54.525-49.156 43.012-84.251z m-179.479 168.79c0.1 6.02-53.297 53.458-52.79 70.811 7.933 14.242 14.454 29.373 18.968 45.376 10.032 13.579 81.409 9.94 85.882 14.388 4.816 4.779 4.639 79.223 0.037 83.952-3.908 4.004-65.622 0.888-84.196 10.464-4.854 19.421-12.559 37.671-22.38 54.565 1.271 18.122 50.479 62.494 50.479 68.556 0 6.759-53.101 59.274-59.719 59.387-5.555 0.087-46.181-44.538-66.353-51.562-15.392 9.152-31.979 16.528-49.562 21.632-13.198 11.057-9.667 80.563-14.098 84.96-4.809 4.788-79.725 4.605-84.479 0.033-3.913-3.768-1.063-61.636-9.675-81.956-18.326-4.199-35.713-10.804-51.902-19.334 0.004 0.058 0.021 0.112 0.025 0.174-12.504-12.43-67.439 48.675-74.244 48.675-6.808 0-59.652-52.766-59.76-59.337-0.091-5.526 44.87-45.937 51.89-65.976-10.812-17.425-19.243-36.46-24.645-56.743-9.829-13.671-81.471-10.003-85.956-14.459-4.809-4.775-4.63-79.218-0.033-83.944 4.074-4.186 71.107-0.593 86.396-11.762 4.655-17.06 11.559-33.17 20.089-48.238-0.477 0.063-0.925 0.141-1.407 0.194 12.5-12.425-48.985-67.014-48.985-73.781 0-6.76 53.101-59.279 59.714-59.385 6.008-0.108 52.96 52.027 70.796 52.434 15.774-8.999 32.78-16.11 50.765-20.89 1.108-0.706 2.494-1.354 4.091-1.958 12.799-11.942 9.38-80.27 13.774-84.628 4.808-4.784 79.724-4.605 84.479-0.033 4.381 4.209 0.295 76.108 13.276 87.397 1.324 0.527 2.618 1.062 3.664 1.635 15.94 4.945 30.963 11.872 45.048 20.19 16.683 2.747 64.718-50.178 71.058-50.178 6.797 0.004 59.648 52.769 59.753 59.341z m-240.078 74.213c-54.433 0-98.564 43.887-98.564 98.029s44.131 98.037 98.564 98.037c54.438 0 98.564-43.895 98.564-98.037s-44.127-98.029-98.564-98.029z" fill="#ffffff" p-id="2753"></path></svg>