<?xml version="1.0" standalone="no"?><!DOCTYPE svg PUBLIC "-//W3C//DTD SVG 1.1//EN" "http://www.w3.org/Graphics/SVG/1.1/DTD/svg11.dtd"><svg t="1557889307658" class="icon" style="" viewBox="0 0 1024 1024" version="1.1" xmlns="http://www.w3.org/2000/svg" p-id="2088" xmlns:xlink="http://www.w3.org/1999/xlink" width="128" height="128"><defs><style type="text/css"></style></defs><path d="M994.97656 230.580837c-8.201977-60.439696-99.947836-98.086565-111.579918-102.56772L709.446948 57.369115c-8.06092-2.575159-17.166009 0.64508-21.550833 7.914702-4.43471 7.200813-3.051658 16.476203 3.14627 22.245799 29.75453 27.370315 39.958836 81.727336 40.244392 81.727336 0 7.962868-1.811385 673.575339-1.811385 690.786073 0 48.590866-35.572292 77.581622-37.289065 78.918228-6.865371 5.339542-8.8677 14.683741-4.814877 22.219996 3.192716 6.105037 9.586749 9.774252 16.352348 9.774252 1.720213 0 3.435266-0.24083 5.103873-0.715609 8.155531-2.287884 150.105817-55.836405 164.220167-60.460338 122.498113-39.862504 123.831278-110.508226 123.831278-113.463552 0.385328-229.211548 1.764939-353.689626 2.57516-425.788928 1.05105-98.606069 1.099216-100.510346-4.477716-139.946237zM531.208762 48.931469H149.360964c-68.756927 0-124.595053 54.455074-124.595052 121.402336v686.759055c0 66.897377 55.836405 121.35073 124.595052 121.35073h381.847798c68.664036 0 124.548607-54.453353 124.548607-121.35073V170.332085c-0.00172-66.947263-55.888011-121.400617-124.548607-121.400616zM319.973444 828.14683c-41.390053 0-75.054629-32.759743-75.054628-73.028218 0-40.3132 33.664575-73.121109 75.054628-73.121108 41.388333 0 75.14752 32.806189 75.14752 73.121108-0.00172 40.270194-33.760907 73.028217-75.14752 73.028218z m236.697916-316.902864c0 30.80386-23.367378 55.860488-52.163749 55.860488H175.969224c-28.801532 0-52.260081-25.056628-52.260081-55.860488v-132.748864h432.962217v132.748864z m0-168.701323H123.709143v-132.846916c0-30.80042 23.458549-55.884571 52.260081-55.884571h328.536667c28.798092 0 52.16375 25.084151 52.163749 55.884571l0.00172 132.846916z" p-id="2089" fill="#ffffff"></path></svg>