<?xml version="1.0" standalone="no"?><!DOCTYPE svg PUBLIC "-//W3C//DTD SVG 1.1//EN" "http://www.w3.org/Graphics/SVG/1.1/DTD/svg11.dtd"><svg t="1545897627610" class="icon" style="" viewBox="0 0 1024 1024" version="1.1" xmlns="http://www.w3.org/2000/svg" p-id="9116" xmlns:xlink="http://www.w3.org/1999/xlink" width="128" height="128"><defs><style type="text/css"></style></defs><path d="M504.613 302.885c-124.068 0-225.021 100.98-225.021 225.103s100.939 225.089 225.021 225.089 225.007-100.98 225.007-225.089-100.926-225.103-225.007-225.103zM504.613 713.973c-102.509 0-185.918-83.436-185.918-185.999s83.408-185.999 185.918-185.999c102.509 0 185.918 83.45 185.918 185.999s-83.394 185.999-185.918 185.999z" p-id="9117" fill="#ffffff"></path><path d="M959.174 411.716c-22.214-2.020-67.898-14.896-77.974-36.864-7.387-16.057 2.853-45.574 28.071-80.964l22.432-31.511-151.307-159.389-33.451 25.054c-13.872 10.404-50.804 31.867-76.513 31.867-4.546 0-8.342-0.71-11.25-2.089-13.23-6.294-22.132-34.83-23.785-76.294l-1.761-45.11h-240.927l-1.775 45.097c-1.652 41.478-10.541 70.014-23.771 76.322-2.908 1.379-6.69 2.089-11.223 2.089-25.723 0-62.669-21.476-76.541-31.881l-33.478-25.094-151.279 159.43 22.432 31.511c25.204 35.348 35.444 64.839 28.112 80.91-9.585 21.012-52.278 34.461-78.029 36.932l-42.694 3.891v218.986l42.612 3.877c25.833 2.471 68.526 15.92 78.111 36.932 7.332 16.070-2.908 45.562-28.112 80.924l-22.419 31.511 151.279 159.43 33.465-25.108c13.872-10.39 50.818-31.867 76.541-31.867 4.533 0 8.315 0.697 11.21 2.076 10.226 4.875 21.845 27.484 23.785 76.322l1.761 45.097h240.954l1.775-45.097c1.652-41.492 10.541-70.028 23.757-76.322 2.922-1.393 6.718-2.089 11.25-2.089 25.696 0 62.641 21.476 76.513 31.867l33.451 25.068 151.293-159.403-22.419-31.525c-25.231-35.39-35.458-64.894-28.085-80.964 10.076-21.954 55.76-34.844 77.988-36.864l42.694-3.891v-218.986l-42.694-3.877zM962.779 598.917l-7.14 0.655c-0.86 0.082-86.562 8.437-109.978 59.488-13.967 30.419-3.277 70.779 31.772 119.945l3.755 5.284-105.185 110.811-5.598-4.192c-18.309-13.722-62.765-39.677-99.97-39.677-10.39 0-19.811 1.966-28.044 5.871-28.18 13.421-43.663 50.449-46.039 110.086l-0.287 7.537h-165.751l-0.287-7.55c-2.375-59.625-17.872-96.652-46.052-110.074-8.192-3.905-17.627-5.871-28.017-5.871-46.558 0-99.478 39.294-99.997 39.691l-5.612 4.205-105.158-110.837 3.755-5.27c34.993-49.098 45.698-89.415 31.826-119.822-23.17-50.763-106.428-59.283-110.046-59.625l-7.14-0.655 0.014-147.593 7.236-0.655c3.536-0.341 86.795-8.861 109.964-59.625 13.872-30.406 3.154-70.724-31.84-119.822l-3.755-5.284 105.158-110.825 5.612 4.205c0.532 0.396 53.453 39.691 99.997 39.691 10.404 0 19.825-1.98 28.030-5.885 28.166-13.408 43.663-50.449 46.039-110.074l0.287-7.537h165.765l0.287 7.55c2.375 59.625 17.872 96.652 46.066 110.074 8.206 3.891 17.627 5.871 28.030 5.871 37.219 0 81.661-25.969 99.956-39.677l5.598-4.192 105.185 110.811-3.755 5.27c-35.049 49.18-45.725 89.552-31.758 119.945 23.429 51.091 109.118 59.42 109.964 59.501l7.154 0.655-0.041 147.593z" p-id="9118" fill="#ffffff"></path></svg>
