<?xml version="1.0" standalone="no"?><!DOCTYPE svg PUBLIC "-//W3C//DTD SVG 1.1//EN" "http://www.w3.org/Graphics/SVG/1.1/DTD/svg11.dtd"><svg t="1545719567726" class="icon" style="" viewBox="0 0 1024 1024" version="1.1" xmlns="http://www.w3.org/2000/svg" p-id="3048" xmlns:xlink="http://www.w3.org/1999/xlink" width="128" height="128"><defs><style type="text/css"></style></defs><path d="M527.541975 603.178629c-59.499116 0-107.907639-48.408523-107.907639-107.907639s48.408523-107.893312 107.907639-107.893312 107.907639 48.393173 107.907639 107.893312S587.04109 603.178629 527.541975 603.178629zM527.541975 449.438129c-25.287943 0-45.848211 20.560268-45.848211 45.832861 0 25.287943 20.560268 45.848211 45.848211 45.848211 25.287943 0 45.848211-20.560268 45.848211-45.848211C573.389162 469.998397 552.828894 449.438129 527.541975 449.438129z" p-id="3049" fill="#ffffff"></path><path d="M668.267043 914.312832c-7.287987 0-14.818497-2.197038-20.666692-6.030343-2.166339-1.439792-4.151553-3.121084-5.894244-5.045923-0.151449-0.166799-15.226796-16.635889-36.968983-32.787754-29.212322-21.697161-56.014758-32.69668-79.651085-32.69668-23.409153 0-50.015114 10.803044-79.059614 32.090882-21.317515 15.620769-36.211736 31.54546-36.832883 32.226982-1.787716 1.909489-3.802606 3.590781-6.014994 5.015224-7.833409 4.984524-18.712177 7.212262-28.106128 4.848425-2.651386-0.666172-5.197372-1.666966-7.575536-3.000334l-107.559715-60.135612c-13.879102-7.773034-19.651572-24.756847-13.363356-39.36352 1.272993-2.969635 12.499685-29.78742 12.499685-56.059783 0-77.908394-60.892859-142.104485-138.635477-146.149615-14.393825-0.74292-26.363438-11.288091-28.92375-25.454742-1.529843-8.454556-9.151427-52.286854-9.151427-86.120426 0-33.938973 7.621585-77.69657 9.151427-86.120426 2.560312-14.166651 14.545274-24.711821 28.92375-25.454742 77.741595-4.02978 138.635477-68.226894 138.635477-146.135288 0-26.287713-11.181667-53.014424-12.45466-55.968709-6.317892-14.681374-0.454348-31.772634 13.560854-39.46892L373.814778 80.093153c4.605901-2.515287 9.621125-3.697205 15.014972-3.833305 7.984858 0 15.772218 2.303462 21.772886 6.302543 1.87879 1.242294 3.606131 2.697435 5.166673 4.318352s15.847943 16.303314 36.423561 30.969339c28.681226 20.439518 54.848189 30.80254 77.80197 30.80254 22.726607 0 48.711422-10.166547 77.196173-30.196743 20.439518-14.393825 34.681894-28.78765 36.227086-30.393217 1.439792-1.454118 3.000334-2.77316 4.681626-3.924379 10.135848-6.939039 25.818015-8.878205 37.257555-2.575662l109.696378 60.954257c13.939477 7.726985 19.727297 24.727171 13.45443 39.36352-1.272993 2.984984-12.515035 29.909194-12.515035 56.059783 0 77.908394 60.908208 142.104485 138.665153 146.135288 14.393825 0.741897 26.394137 11.317767 28.939099 25.515117 2.152013 11.969613 9.120728 53.530171 9.120728 86.060051 0 32.727379-6.969739 74.150814-9.120728 86.075401-2.544963 14.19735-14.545274 24.756847-28.939099 25.499767-77.756945 4.045129-138.665153 68.242244-138.665153 146.149615 0 25.499767 10.42442 51.181683 12.515035 56.059783 6.242168 14.651698 0.393973 31.650861-13.545504 39.34817l-111.49842 61.635779c-1.666966 0.924045-3.408633 1.681292-5.197372 2.288113C675.100682 913.76741 671.600975 914.312832 668.267043 914.312832zM525.087063 775.692704c37.257555 0 76.499301 15.121396 116.650767 44.938492 12.105712 8.999978 22.439058 17.984606 30.227442 25.241894l70.120011-38.757722c-4.242627-14.878872-8.151657-33.954323-8.151657-53.741995 0-102.332666 73.817216-188.05912 172.180478-205.27113 2.212388-15.515369 4.545526-35.862789 4.545526-52.453652 0-16.499789-2.333138-36.893258-4.545526-52.453652-98.362238-17.196661-172.180478-102.923114-172.180478-205.255781 0-19.878746 3.90903-38.984896 8.181333-53.862745l-69.317739-38.499849c-7.711636 6.78759-17.939581 15.21247-29.893844 23.636327-78.69634 55.333236-148.301627 55.060013-226.724745-0.818645-12.090363-8.621355-22.408359-17.242709-30.166043-24.197098l-72.968895 40.075741c4.227278 14.803147 8.091282 33.802874 8.091282 53.66627 0 102.346993-73.801866 188.05912-172.165128 205.255781-2.181689 15.424294-4.545526 35.862789-4.545526 52.453652 0 16.544815 2.363837 37.015032 4.545526 52.453652C247.332085 565.329603 321.134974 651.040706 321.134974 753.373373c0 19.96982-3.924379 39.090297-8.181333 53.969169l66.393129 37.120432c7.757684-7.121188 17.984606-15.893992 29.984918-24.681122C449.253934 790.525528 488.208131 775.692704 525.087063 775.692704z" p-id="3050" fill="#ffffff"></path></svg>
