<?xml version="1.0" standalone="no"?><!DOCTYPE svg PUBLIC "-//W3C//DTD SVG 1.1//EN" "http://www.w3.org/Graphics/SVG/1.1/DTD/svg11.dtd"><svg t="1553599618458" class="icon" style="" viewBox="0 0 1025 1024" version="1.1" xmlns="http://www.w3.org/2000/svg" p-id="2057" xmlns:xlink="http://www.w3.org/1999/xlink" width="128.125" height="128"><defs><style type="text/css"></style></defs><path d="M555.925 624.62c80.82-46.8 135.18-134.4 135.18-234.78 0-149.58-120.84-270.9-269.82-270.9-149.040 0-269.88 121.26-269.88 270.9 0 100.5 54.48 188.16 135.48 234.96-126.9 42.66-225.3 144-254.16 271.86-3.54 15.6 6.24 31.14 21.72 34.62 15.54 3.54 31.020-6.24 34.5-21.78 32.4-143.58 170.58-248.76 332.7-248.76 160.86 0 298.26 103.56 332.040 245.58 3.72 15.54 19.2 28.74 34.68 25.020 15.48-3.72 25.020-22.92 21.3-38.46-29.94-126.42-127.86-226.2-253.74-268.26zM209.005 389.84c0-117.66 95.040-213.060 212.28-213.060 117.18 0 212.22 95.4 212.22 213.060s-95.040 213.060-212.22 213.060c-117.24 0-212.28-95.4-212.28-213.060zM969.865 917.96c-15.48 3.78-31.020-5.88-34.68-21.36-27.060-113.76-107.88-211.020-219.54-265.32-14.28-6.96-20.28-24.24-13.38-38.7 1.56-3.24 3.72-6.12 6.18-8.46 1.38-2.52 3.24-4.8 5.4-6.9 51.66-49.26 81.42-117.42 81.42-190.38 0-104.28-61.14-197.4-154.14-239.52-14.52-6.54-20.94-23.7-14.46-38.28 6.54-14.58 23.64-21.060 38.16-14.46 113.52 51.42 188.040 165 188.040 292.26 0 78.6-28.38 152.7-78.42 210.36 109.44 64.020 188.46 166.74 216.78 285.96 3.72 15.48-5.82 31.080-21.36 34.8z" p-id="2058" fill="#ffffff"></path></svg>